{"accessors":[{"bufferView":0,"byteOffset":0,"componentType":5126,"count":58,"max":[0.034,0.03400000000000003,0.12400000000000001],"min":[-0.034,-0.034,-7.549516567451067e-18],"type":"VEC3"},{"bufferView":0,"byteOffset":696,"componentType":5126,"count":28,"max":[0.034,0.034,7.549516567451067e-18],"min":[-0.034,-0.034,-7.549516567451067e-18],"type":"VEC3"},{"bufferView":0,"byteOffset":1032,"componentType":5126,"count":28,"max":[0.034,0.03400000000000003,0.12400000000000001],"min":[-0.034,-0.033999999999999975,0.12399999999999997],"type":"VEC3"},{"bufferView":1,"byteOffset":0,"componentType":5126,"count":58,"type":"VEC3"},{"bufferView":1,"byteOffset":696,"componentType":5126,"count":28,"type":"VEC3"},{"bufferView":1,"byteOffset":1032,"componentType":5126,"count":28,"type":"VEC3"},{"bufferView":2,"byteOffset":0,"componentType":5123,"count":168,"type":"SCALAR"},{"bufferView":2,"byteOffset":336,"componentType":5123,"count":78,"type":"SCALAR"},{"bufferView":2,"byteOffset":492,"componentType":5123,"count":78,"type":"SCALAR"}],"asset":{"generator":"Open CASCADE Technology 7.8 [dev.opencascade.org]","version":"2.0"},"bufferViews":[{"buffer":0,"byteLength":1368,"byteOffset":0,"byteStride":12,"target":34962},{"buffer":0,"byteLength":1368,"byteOffset":1368,"byteStride":12,"target":34962},{"buffer":0,"byteLength":648,"byteOffset":2736,"target":34963}],"buffers":[{"byteLength":3384,"uri":"Body.bin"}],"materials":[{"name":"mat_0","pbrMetallicRoughness":{"baseColorFactor":[0.168269544839859,0.19120186567306519,0.21586069464683533,1.0]},"doubleSided":true}],"meshes":[{"name":"Body","primitives":[{"attributes":{"NORMAL":3,"POSITION":0},"indices":6,"material":0,"mode":4},{"attributes":{"NORMAL":4,"POSITION":1},"indices":7,"material":0,"mode":4},{"attributes":{"NORMAL":5,"POSITION":2},"indices":8,"material":0,"mode":4}]}],"nodes":[{"mesh":0,"name":"Body"}],"scene":0,"scenes":[{"nodes":[0]}]}