{"accessors":[{"bufferView":0,"byteOffset":0,"componentType":5126,"count":6,"max":[0.033813751232345336,0.0035539031496473274,0.0009999999999999983],"min":[0.030830185546237389,0.003240317759843165,-0.008999999999999993],"type":"VEC3"},{"bufferView":0,"byteOffset":72,"componentType":5126,"count":8,"max":[0.032321968389292927,0.01164702851778434,-0.008990000000000002],"min":[0.03034133693010423,0.003397110454744968,-0.009000000000000007],"type":"VEC3"},{"bufferView":0,"byteOffset":168,"componentType":5126,"count":8,"max":[0.032321968389292927,0.01164702851778434,0.0009999999999999983],"min":[0.028940966290358185,0.003240317759843165,-0.008990000000000005],"type":"VEC3"},{"bufferView":0,"byteOffset":264,"componentType":5126,"count":57,"max":[0.034,0.03389519114562605,0.0010000000000000179],"min":[-0.03395340318169534,-0.03397928578732955,0.0009999999999999858],"type":"VEC3"},{"bufferView":0,"byteOffset":948,"componentType":5126,"count":9,"max":[0.034,0.0035539031496473274,0.001],"min":[0.03381375123234522,0.0,-0.061],"type":"VEC3"},{"bufferView":0,"byteOffset":1056,"componentType":5126,"count":5,"max":[0.033813751232345336,0.003553903149647228,-0.008999999999999993],"min":[0.030830185546234538,0.0032403177598427969,-0.061],"type":"VEC3"},{"bufferView":0,"byteOffset":1116,"componentType":5126,"count":6,"max":[0.03174170756985502,0.0121845804421097,0.0009999999999999966],"min":[0.028940966290358185,0.011109476593455303,-0.009000000000000007],"type":"VEC3"},{"bufferView":0,"byteOffset":1188,"componentType":5126,"count":15,"max":[0.032321968389292927,0.029444863728670936,-0.008999999999999993],"min":[0.015500000000000038,0.003240317759842868,-0.009000000000000034],"type":"VEC3"},{"bufferView":0,"byteOffset":1368,"componentType":5126,"count":24,"max":[0.03174170756985502,0.033953405881440978,0.0009999999999999966],"min":[-0.019984646026356028,0.012184580442108644,-0.061000000000000009],"type":"VEC3"},{"bufferView":0,"byteOffset":1656,"componentType":5126,"count":6,"max":[-0.018221290269476759,0.027506615989635224,0.0009999999999999912],"min":[-0.019984646026356028,0.025079565006507787,-0.009000000000000048],"type":"VEC3"},{"bufferView":0,"byteOffset":1728,"componentType":5126,"count":8,"max":[-0.018221290269476759,0.02629309049807275,0.0009999999999999912],"min":[-0.025257291040055159,0.019508873720791604,-0.008990000000000014],"type":"VEC3"},{"bufferView":0,"byteOffset":1824,"componentType":5126,"count":22,"max":[0.034,6.2e-17,0.0010000000000000107],"min":[-0.005318697587605461,-0.033997086399717438,-0.061],"type":"VEC3"},{"bufferView":0,"byteOffset":2088,"componentType":5126,"count":6,"max":[-0.024091572097859977,0.021396834893936378,0.0009999999999999929],"min":[-0.026423009982249527,0.019508873720791604,-0.009000000000000048],"type":"VEC3"},{"bufferView":0,"byteOffset":2160,"componentType":5126,"count":6,"max":[-0.004849394192498192,-0.030618350314246903,0.0010000000000000179],"min":[-0.005318697587605461,-0.0335814153360461,-0.008999999999999975],"type":"VEC3"},{"bufferView":0,"byteOffset":2232,"componentType":5126,"count":24,"max":[-0.013829105205988403,0.021396834893936378,0.0010000000000000107],"min":[-0.034,-0.031060519139282044,-0.061],"type":"VEC3"},{"bufferView":0,"byteOffset":2520,"componentType":5126,"count":8,"max":[-0.004849394192498192,-0.028319882766350957,0.0010000000000000144],"min":[-0.013219000241375569,-0.03209988282514537,-0.008989999999999988],"type":"VEC3"},{"bufferView":0,"byteOffset":2616,"componentType":5126,"count":6,"max":[-0.012608895276760624,-0.028319882766350957,0.001000000000000016],"min":[-0.013829105205989285,-0.031060519139281985,-0.00899999999999998],"type":"VEC3"},{"bufferView":0,"byteOffset":2688,"componentType":5126,"count":4,"max":[-0.026429319272048138,-0.013526923788646697,0.001000000000000008],"min":[-0.02942931927204814,-0.01872307621135333,3e-18],"type":"VEC3"},{"bufferView":0,"byteOffset":2736,"componentType":5126,"count":4,"max":[-0.027264255762587048,-0.012276923788646697,0.001000000000000006],"min":[-0.02942931927204814,-0.013526923788646697,3e-18],"type":"VEC3"},{"bufferView":0,"byteOffset":2784,"componentType":5126,"count":8,"max":[-0.02426425576258704,-0.012276923788646697,0.001000000000000008],"min":[-0.027264255762587048,-0.01747307621135333,-0.000999999999999983],"type":"VEC3"},{"bufferView":0,"byteOffset":2880,"componentType":5126,"count":4,"max":[-0.02426425576258704,-0.01747307621135333,0.001000000000000008],"min":[-0.026429319272048138,-0.01872307621135333,4e-18],"type":"VEC3"},{"bufferView":0,"byteOffset":2928,"componentType":5126,"count":76,"max":[0.034,0.033953405881440978,-0.06099999999999997],"min":[-0.033999999999999978,-0.031060519139282044,-0.06100000000000005],"type":"VEC3"},{"bufferView":0,"byteOffset":3840,"componentType":5126,"count":12,"max":[0.030830185546234555,0.026846787517317617,-0.008999999999999993],"min":[0.015500000000000037,0.0032403177598427969,-0.06100000000000002],"type":"VEC3"},{"bufferView":0,"byteOffset":3984,"componentType":5126,"count":4,"max":[0.017000000000000145,0.029444863728670929,-0.00900000000000003],"min":[0.015500000000000037,0.026846787517317545,-0.06100000000000001],"type":"VEC3"},{"bufferView":0,"byteOffset":4032,"componentType":5126,"count":5,"max":[-0.01822129026947502,0.02750661598963518,-0.009000000000000043],"min":[-0.019984646026356028,0.025079565006505403,-0.06100000000000001],"type":"VEC3"},{"bufferView":0,"byteOffset":4092,"componentType":5126,"count":8,"max":[-0.019102968147917313,0.02629309049807275,-0.00899000000000001],"min":[-0.025257291040055159,0.02045285430736101,-0.009000000000000047],"type":"VEC3"},{"bufferView":0,"byteOffset":4188,"componentType":5126,"count":15,"max":[0.017000000000000006,-0.02684678751731762,-0.008999999999999967],"min":[-0.01321900024137559,-0.03399708639971744,-0.008999999999999982],"type":"VEC3"},{"bufferView":0,"byteOffset":4368,"componentType":5126,"count":4,"max":[0.017000000000000124,-0.026846787517317614,-0.008999999999999967],"min":[0.0155,-0.029444863728670929,-0.06099999999999999],"type":"VEC3"},{"bufferView":0,"byteOffset":4416,"componentType":5126,"count":15,"max":[-0.018221290269475073,0.026293090498072746,-0.00900000000000003],"min":[-0.034,-1.5777218104420238e-33,-0.009000000000000048],"type":"VEC3"},{"bufferView":0,"byteOffset":4596,"componentType":5126,"count":8,"max":[-0.005084045890049025,-0.02969020095281774,-0.008989999999999986],"min":[-0.01321900024137559,-0.03209988282514537,-0.00899999999999998],"type":"VEC3"},{"bufferView":0,"byteOffset":4692,"componentType":5126,"count":5,"max":[-0.01260889527675941,-0.028319882766348348,-0.00899999999999998],"min":[-0.013829105205989285,-0.031060519139282044,-0.06099999999999999],"type":"VEC3"},{"bufferView":0,"byteOffset":4752,"componentType":5126,"count":4,"max":[-0.030999999999999949,1.3879999999999999e-15,-0.00900000000000003],"min":[-0.034,-5.2e-17,-0.061],"type":"VEC3"},{"bufferView":0,"byteOffset":4800,"componentType":5126,"count":19,"max":[-0.01258788290297787,-0.0005198281013764851,4e-18],"min":[-0.03349489778773912,-0.030361310865727795,-5.987556625286994e-18],"type":"VEC3"},{"bufferView":0,"byteOffset":5028,"componentType":5126,"count":8,"max":[-0.012587882902977866,-0.016133460666336087,4e-18],"min":[-0.025037683158113355,-0.026994802000000017,-0.000999999999999986],"type":"VEC3"},{"bufferView":0,"byteOffset":5124,"componentType":5126,"count":63,"max":[0.030500000000000014,0.0304988386534572,-0.0009999999999999433],"min":[-0.030495354702269944,-0.030481420224082457,-0.0010000000000000285],"type":"VEC3"},{"bufferView":0,"byteOffset":5880,"componentType":5126,"count":8,"max":[-0.026490828367060738,-0.0005198281013764851,3e-18],"min":[-0.029780931982449887,-0.013616539333663936,-0.000999999999999986],"type":"VEC3"},{"bufferView":0,"byteOffset":5976,"componentType":5126,"count":12,"max":[0.015500000000000028,-0.026846787517317614,-0.00899999999999997],"min":[-0.012608895276759437,-0.030972806100962797,-0.060999999999999988],"type":"VEC3"},{"bufferView":0,"byteOffset":6120,"componentType":5126,"count":12,"max":[-0.01822129026947502,0.025079565006505455,-0.00900000000000003],"min":[-0.031,-5.2e-17,-0.06100000000000005],"type":"VEC3"},{"bufferView":0,"byteOffset":6264,"componentType":5126,"count":22,"max":[0.030500000000000014,9e-18,-0.0009999999999999433],"min":[-0.012889856983091327,-0.030481420224082457,-0.061],"type":"VEC3"},{"bufferView":0,"byteOffset":6528,"componentType":5126,"count":6,"max":[-0.012587882902977866,-0.02699480200000001,0.0],"min":[-0.01415771176831343,-0.0303613108657278,-0.06099999999999999],"type":"VEC3"},{"bufferView":0,"byteOffset":6600,"componentType":5126,"count":14,"max":[-0.014157711768313427,-0.0005846556156489871,0.0],"min":[-0.03349489778773912,-0.0303613108657278,-0.061],"type":"VEC3"},{"bufferView":0,"byteOffset":6768,"componentType":5126,"count":6,"max":[-0.02978093198244988,-0.0005198281013764851,0.0],"min":[-0.03349489778773912,-0.0005846556156490011,-0.061],"type":"VEC3"},{"bufferView":0,"byteOffset":6840,"componentType":5126,"count":34,"max":[0.030500000000000014,0.03049883865345724,-0.0009999999999999433],"min":[-0.030495354702269944,-0.00053229839633715,-0.061000000000000009],"type":"VEC3"},{"bufferView":0,"byteOffset":7248,"componentType":5126,"count":28,"max":[0.025,0.025000000000000016,-0.001],"min":[-0.025,-0.024999999999999989,-0.0010000000000000285],"type":"VEC3"},{"bufferView":1,"byteOffset":0,"componentType":5126,"count":6,"type":"VEC3"},{"bufferView":1,"byteOffset":72,"componentType":5126,"count":8,"type":"VEC3"},{"bufferView":1,"byteOffset":168,"componentType":5126,"count":8,"type":"VEC3"},{"bufferView":1,"byteOffset":264,"componentType":5126,"count":57,"type":"VEC3"},{"bufferView":1,"byteOffset":948,"componentType":5126,"count":9,"type":"VEC3"},{"bufferView":1,"byteOffset":1056,"componentType":5126,"count":5,"type":"VEC3"},{"bufferView":1,"byteOffset":1116,"componentType":5126,"count":6,"type":"VEC3"},{"bufferView":1,"byteOffset":1188,"componentType":5126,"count":15,"type":"VEC3"},{"bufferView":1,"byteOffset":1368,"componentType":5126,"count":24,"type":"VEC3"},{"bufferView":1,"byteOffset":1656,"componentType":5126,"count":6,"type":"VEC3"},{"bufferView":1,"byteOffset":1728,"componentType":5126,"count":8,"type":"VEC3"},{"bufferView":1,"byteOffset":1824,"componentType":5126,"count":22,"type":"VEC3"},{"bufferView":1,"byteOffset":2088,"componentType":5126,"count":6,"type":"VEC3"},{"bufferView":1,"byteOffset":2160,"componentType":5126,"count":6,"type":"VEC3"},{"bufferView":1,"byteOffset":2232,"componentType":5126,"count":24,"type":"VEC3"},{"bufferView":1,"byteOffset":2520,"componentType":5126,"count":8,"type":"VEC3"},{"bufferView":1,"byteOffset":2616,"componentType":5126,"count":6,"type":"VEC3"},{"bufferView":1,"byteOffset":2688,"componentType":5126,"count":4,"type":"VEC3"},{"bufferView":1,"byteOffset":2736,"componentType":5126,"count":4,"type":"VEC3"},{"bufferView":1,"byteOffset":2784,"componentType":5126,"count":8,"type":"VEC3"},{"bufferView":1,"byteOffset":2880,"componentType":5126,"count":4,"type":"VEC3"},{"bufferView":1,"byteOffset":2928,"componentType":5126,"count":76,"type":"VEC3"},{"bufferView":1,"byteOffset":3840,"componentType":5126,"count":12,"type":"VEC3"},{"bufferView":1,"byteOffset":3984,"componentType":5126,"count":4,"type":"VEC3"},{"bufferView":1,"byteOffset":4032,"componentType":5126,"count":5,"type":"VEC3"},{"bufferView":1,"byteOffset":4092,"componentType":5126,"count":8,"type":"VEC3"},{"bufferView":1,"byteOffset":4188,"componentType":5126,"count":15,"type":"VEC3"},{"bufferView":1,"byteOffset":4368,"componentType":5126,"count":4,"type":"VEC3"},{"bufferView":1,"byteOffset":4416,"componentType":5126,"count":15,"type":"VEC3"},{"bufferView":1,"byteOffset":4596,"componentType":5126,"count":8,"type":"VEC3"},{"bufferView":1,"byteOffset":4692,"componentType":5126,"count":5,"type":"VEC3"},{"bufferView":1,"byteOffset":4752,"componentType":5126,"count":4,"type":"VEC3"},{"bufferView":1,"byteOffset":4800,"componentType":5126,"count":19,"type":"VEC3"},{"bufferView":1,"byteOffset":5028,"componentType":5126,"count":8,"type":"VEC3"},{"bufferView":1,"byteOffset":5124,"componentType":5126,"count":63,"type":"VEC3"},{"bufferView":1,"byteOffset":5880,"componentType":5126,"count":8,"type":"VEC3"},{"bufferView":1,"byteOffset":5976,"componentType":5126,"count":12,"type":"VEC3"},{"bufferView":1,"byteOffset":6120,"componentType":5126,"count":12,"type":"VEC3"},{"bufferView":1,"byteOffset":6264,"componentType":5126,"count":22,"type":"VEC3"},{"bufferView":1,"byteOffset":6528,"componentType":5126,"count":6,"type":"VEC3"},{"bufferView":1,"byteOffset":6600,"componentType":5126,"count":14,"type":"VEC3"},{"bufferView":1,"byteOffset":6768,"componentType":5126,"count":6,"type":"VEC3"},{"bufferView":1,"byteOffset":6840,"componentType":5126,"count":34,"type":"VEC3"},{"bufferView":1,"byteOffset":7248,"componentType":5126,"count":28,"type":"VEC3"},{"bufferView":2,"byteOffset":0,"componentType":5123,"count":12,"type":"SCALAR"},{"bufferView":2,"byteOffset":24,"componentType":5123,"count":18,"type":"SCALAR"},{"bufferView":2,"byteOffset":60,"componentType":5123,"count":18,"type":"SCALAR"},{"bufferView":2,"byteOffset":96,"componentType":5123,"count":171,"type":"SCALAR"},{"bufferView":2,"byteOffset":440,"componentType":5123,"count":21,"type":"SCALAR"},{"bufferView":2,"byteOffset":484,"componentType":5123,"count":9,"type":"SCALAR"},{"bufferView":2,"byteOffset":504,"componentType":5123,"count":12,"type":"SCALAR"},{"bufferView":2,"byteOffset":528,"componentType":5123,"count":39,"type":"SCALAR"},{"bufferView":2,"byteOffset":608,"componentType":5123,"count":66,"type":"SCALAR"},{"bufferView":2,"byteOffset":740,"componentType":5123,"count":12,"type":"SCALAR"},{"bufferView":2,"byteOffset":764,"componentType":5123,"count":18,"type":"SCALAR"},{"bufferView":2,"byteOffset":800,"componentType":5123,"count":60,"type":"SCALAR"},{"bufferView":2,"byteOffset":920,"componentType":5123,"count":12,"type":"SCALAR"},{"bufferView":2,"byteOffset":944,"componentType":5123,"count":12,"type":"SCALAR"},{"bufferView":2,"byteOffset":968,"componentType":5123,"count":66,"type":"SCALAR"},{"bufferView":2,"byteOffset":1100,"componentType":5123,"count":18,"type":"SCALAR"},{"bufferView":2,"byteOffset":1136,"componentType":5123,"count":12,"type":"SCALAR"},{"bufferView":2,"byteOffset":1160,"componentType":5123,"count":6,"type":"SCALAR"},{"bufferView":2,"byteOffset":1172,"componentType":5123,"count":6,"type":"SCALAR"},{"bufferView":2,"byteOffset":1184,"componentType":5123,"count":18,"type":"SCALAR"},{"bufferView":2,"byteOffset":1220,"componentType":5123,"count":6,"type":"SCALAR"},{"bufferView":2,"byteOffset":1232,"componentType":5123,"count":228,"type":"SCALAR"},{"bufferView":2,"byteOffset":1688,"componentType":5123,"count":30,"type":"SCALAR"},{"bufferView":2,"byteOffset":1748,"componentType":5123,"count":6,"type":"SCALAR"},{"bufferView":2,"byteOffset":1760,"componentType":5123,"count":9,"type":"SCALAR"},{"bufferView":2,"byteOffset":1780,"componentType":5123,"count":18,"type":"SCALAR"},{"bufferView":2,"byteOffset":1816,"componentType":5123,"count":39,"type":"SCALAR"},{"bufferView":2,"byteOffset":1896,"componentType":5123,"count":6,"type":"SCALAR"},{"bufferView":2,"byteOffset":1908,"componentType":5123,"count":39,"type":"SCALAR"},{"bufferView":2,"byteOffset":1988,"componentType":5123,"count":18,"type":"SCALAR"},{"bufferView":2,"byteOffset":2024,"componentType":5123,"count":9,"type":"SCALAR"},{"bufferView":2,"byteOffset":2044,"componentType":5123,"count":6,"type":"SCALAR"},{"bufferView":2,"byteOffset":2056,"componentType":5123,"count":51,"type":"SCALAR"},{"bufferView":2,"byteOffset":2160,"componentType":5123,"count":18,"type":"SCALAR"},{"bufferView":2,"byteOffset":2196,"componentType":5123,"count":189,"type":"SCALAR"},{"bufferView":2,"byteOffset":2576,"componentType":5123,"count":18,"type":"SCALAR"},{"bufferView":2,"byteOffset":2612,"componentType":5123,"count":30,"type":"SCALAR"},{"bufferView":2,"byteOffset":2672,"componentType":5123,"count":30,"type":"SCALAR"},{"bufferView":2,"byteOffset":2732,"componentType":5123,"count":60,"type":"SCALAR"},{"bufferView":2,"byteOffset":2852,"componentType":5123,"count":12,"type":"SCALAR"},{"bufferView":2,"byteOffset":2876,"componentType":5123,"count":36,"type":"SCALAR"},{"bufferView":2,"byteOffset":2948,"componentType":5123,"count":12,"type":"SCALAR"},{"bufferView":2,"byteOffset":2972,"componentType":5123,"count":96,"type":"SCALAR"},{"bufferView":2,"byteOffset":3164,"componentType":5123,"count":78,"type":"SCALAR"}],"asset":{"generator":"Open CASCADE Technology 7.6 [dev.opencascade.org]","version":"2.0"},"bufferViews":[{"buffer":0,"byteLength":7584,"byteOffset":0,"byteStride":12,"target":34962},{"buffer":0,"byteLength":7584,"byteOffset":7584,"byteStride":12,"target":34962},{"buffer":0,"byteLength":3320,"byteOffset":15168,"target":34963}],"buffers":[{"byteLength":18488,"uri":"cansata-Cut018.bin"}],"materials":[{"name":"mat_0","pbrMetallicRoughness":{"baseColorFactor":[0.6038273572921753,0.6038273572921753,0.6038273572921753,1.0]},"doubleSided":true}],"meshes":[{"name":"Cut018","primitives":[{"attributes":{"NORMAL":44,"POSITION":0},"indices":88,"material":0,"mode":4},{"attributes":{"NORMAL":45,"POSITION":1},"indices":89,"material":0,"mode":4},{"attributes":{"NORMAL":46,"POSITION":2},"indices":90,"material":0,"mode":4},{"attributes":{"NORMAL":47,"POSITION":3},"indices":91,"material":0,"mode":4},{"attributes":{"NORMAL":48,"POSITION":4},"indices":92,"material":0,"mode":4},{"attributes":{"NORMAL":49,"POSITION":5},"indices":93,"material":0,"mode":4},{"attributes":{"NORMAL":50,"POSITION":6},"indices":94,"material":0,"mode":4},{"attributes":{"NORMAL":51,"POSITION":7},"indices":95,"material":0,"mode":4},{"attributes":{"NORMAL":52,"POSITION":8},"indices":96,"material":0,"mode":4},{"attributes":{"NORMAL":53,"POSITION":9},"indices":97,"material":0,"mode":4},{"attributes":{"NORMAL":54,"POSITION":10},"indices":98,"material":0,"mode":4},{"attributes":{"NORMAL":55,"POSITION":11},"indices":99,"material":0,"mode":4},{"attributes":{"NORMAL":56,"POSITION":12},"indices":100,"material":0,"mode":4},{"attributes":{"NORMAL":57,"POSITION":13},"indices":101,"material":0,"mode":4},{"attributes":{"NORMAL":58,"POSITION":14},"indices":102,"material":0,"mode":4},{"attributes":{"NORMAL":59,"POSITION":15},"indices":103,"material":0,"mode":4},{"attributes":{"NORMAL":60,"POSITION":16},"indices":104,"material":0,"mode":4},{"attributes":{"NORMAL":61,"POSITION":17},"indices":105,"material":0,"mode":4},{"attributes":{"NORMAL":62,"POSITION":18},"indices":106,"material":0,"mode":4},{"attributes":{"NORMAL":63,"POSITION":19},"indices":107,"material":0,"mode":4},{"attributes":{"NORMAL":64,"POSITION":20},"indices":108,"material":0,"mode":4},{"attributes":{"NORMAL":65,"POSITION":21},"indices":109,"material":0,"mode":4},{"attributes":{"NORMAL":66,"POSITION":22},"indices":110,"material":0,"mode":4},{"attributes":{"NORMAL":67,"POSITION":23},"indices":111,"material":0,"mode":4},{"attributes":{"NORMAL":68,"POSITION":24},"indices":112,"material":0,"mode":4},{"attributes":{"NORMAL":69,"POSITION":25},"indices":113,"material":0,"mode":4},{"attributes":{"NORMAL":70,"POSITION":26},"indices":114,"material":0,"mode":4},{"attributes":{"NORMAL":71,"POSITION":27},"indices":115,"material":0,"mode":4},{"attributes":{"NORMAL":72,"POSITION":28},"indices":116,"material":0,"mode":4},{"attributes":{"NORMAL":73,"POSITION":29},"indices":117,"material":0,"mode":4},{"attributes":{"NORMAL":74,"POSITION":30},"indices":118,"material":0,"mode":4},{"attributes":{"NORMAL":75,"POSITION":31},"indices":119,"material":0,"mode":4},{"attributes":{"NORMAL":76,"POSITION":32},"indices":120,"material":0,"mode":4},{"attributes":{"NORMAL":77,"POSITION":33},"indices":121,"material":0,"mode":4},{"attributes":{"NORMAL":78,"POSITION":34},"indices":122,"material":0,"mode":4},{"attributes":{"NORMAL":79,"POSITION":35},"indices":123,"material":0,"mode":4},{"attributes":{"NORMAL":80,"POSITION":36},"indices":124,"material":0,"mode":4},{"attributes":{"NORMAL":81,"POSITION":37},"indices":125,"material":0,"mode":4},{"attributes":{"NORMAL":82,"POSITION":38},"indices":126,"material":0,"mode":4},{"attributes":{"NORMAL":83,"POSITION":39},"indices":127,"material":0,"mode":4},{"attributes":{"NORMAL":84,"POSITION":40},"indices":128,"material":0,"mode":4},{"attributes":{"NORMAL":85,"POSITION":41},"indices":129,"material":0,"mode":4},{"attributes":{"NORMAL":86,"POSITION":42},"indices":130,"material":0,"mode":4},{"attributes":{"NORMAL":87,"POSITION":43},"indices":131,"material":0,"mode":4}]}],"nodes":[{"mesh":0,"name":"Cut018"}],"scene":0,"scenes":[{"nodes":[0]}]}