{"accessors":[{"bufferView":0,"byteOffset":0,"componentType":5126,"count":70,"max":[0.034,0.03385496199403118,-0.016999999999999996],"min":[-0.034,-0.03385496199403118,-0.01800000000000001],"type":"VEC3"},{"bufferView":0,"byteOffset":840,"componentType":5126,"count":116,"max":[0.03400000000000002,0.034000000000000047,-0.01799999999999999],"min":[-0.034,-0.03394445621781817,-0.05900000000000002],"type":"VEC3"},{"bufferView":0,"byteOffset":2232,"componentType":5126,"count":67,"max":[0.034,0.03385496199403118,-0.016999999999999996],"min":[-0.034,-0.03385496199403118,-0.017000000000000009],"type":"VEC3"},{"bufferView":0,"byteOffset":3036,"componentType":5126,"count":28,"max":[0.03400000000000002,0.034000000000000047,-0.059],"min":[-3.1e-16,-0.009062734313012685,-0.05900000000000002],"type":"VEC3"},{"bufferView":0,"byteOffset":3372,"componentType":5126,"count":5,"max":[0.0,0.034000000000000047,-0.054],"min":[-3.1e-16,0.031,-0.05900000000000001],"type":"VEC3"},{"bufferView":0,"byteOffset":3432,"componentType":5126,"count":4,"max":[0.0027018280251774036,0.034000000000000047,-0.051000000000000007],"min":[-3e-18,0.030882035640844128,-0.054000000000000009],"type":"VEC3"},{"bufferView":0,"byteOffset":3480,"componentType":5126,"count":8,"max":[-2e-18,0.034000000000000047,-0.051],"min":[-0.017000063485592178,0.026846750863804167,-0.05100000000000001],"type":"VEC3"},{"bufferView":0,"byteOffset":3576,"componentType":5126,"count":8,"max":[-0.015500063485574208,0.029444827075155983,-0.051],"min":[-0.017780869526882439,0.02539371337295876,-0.05100000000000001],"type":"VEC3"},{"bufferView":0,"byteOffset":3672,"componentType":5126,"count":4,"max":[-0.017067526000000008,0.029405774198944757,-0.051000000000000007],"min":[-0.017780869526882439,0.02539371337295876,-0.054],"type":"VEC3"},{"bufferView":0,"byteOffset":3720,"componentType":5126,"count":8,"max":[-0.015500063485574208,0.029444827075155983,-0.05399999999999999],"min":[-0.017780869526882439,0.02539371337295876,-0.054000000000000009],"type":"VEC3"},{"bufferView":0,"byteOffset":3816,"componentType":5126,"count":8,"max":[-0.007759911198478579,0.03291093965291787,-0.05399999999999999],"min":[-0.017000063485592178,0.026846750863804167,-0.054000000000000009],"type":"VEC3"},{"bufferView":0,"byteOffset":3912,"componentType":5126,"count":5,"max":[-0.007759911198478579,0.03291093965291787,-0.054000000000000009],"min":[-0.008536395677471795,0.030013060127079776,-0.05900000000000002],"type":"VEC3"},{"bufferView":0,"byteOffset":3972,"componentType":5126,"count":24,"max":[-0.007759911198479954,0.03291093965291787,-0.059],"min":[-0.033986111217715237,-0.017000000000000023,-0.05900000000000002],"type":"VEC3"},{"bufferView":0,"byteOffset":4260,"componentType":5126,"count":5,"max":[-0.02684678751731746,-0.015499999999999997,-0.054],"min":[-0.029444863728670967,-0.017000000000000023,-0.05900000000000002],"type":"VEC3"},{"bufferView":0,"byteOffset":4320,"componentType":5126,"count":4,"max":[-0.028095541398136176,-0.01310116611396169,-0.051000000000000007],"min":[-0.029444863728670963,-0.01700000000000002,-0.054000000000000009],"type":"VEC3"},{"bufferView":0,"byteOffset":4368,"componentType":5126,"count":8,"max":[-0.015499936514339137,-0.015499999999999999,-0.051000000000000007],"min":[-0.029444863728670963,-0.029444900382049046,-0.05100000000000001],"type":"VEC3"},{"bufferView":0,"byteOffset":4464,"componentType":5126,"count":8,"max":[-0.0131011661139617,-0.026846824170680917,-0.051],"min":[-0.01699993651432885,-0.02948379819522379,-0.05100000000000001],"type":"VEC3"},{"bufferView":0,"byteOffset":4560,"componentType":5126,"count":4,"max":[-0.013101166113961702,-0.02809554139813618,-0.051000000000000007],"min":[-0.016932384474235168,-0.029483798195223799,-0.054],"type":"VEC3"},{"bufferView":0,"byteOffset":4608,"componentType":5126,"count":8,"max":[-0.0131011661139617,-0.026846824170680917,-0.05399999999999999],"min":[-0.01699993651432885,-0.02948379819522379,-0.054000000000000009],"type":"VEC3"},{"bufferView":0,"byteOffset":4704,"componentType":5126,"count":8,"max":[-0.015499936514339138,-0.021726810292533859,-0.054000000000000009],"min":[-0.024233511963107608,-0.029444900382049046,-0.054000000000000009],"type":"VEC3"},{"bufferView":0,"byteOffset":4800,"componentType":5126,"count":5,"max":[-0.022112116916121178,-0.021726810292533859,-0.054000000000000009],"min":[-0.024233511963107608,-0.023848205339905179,-0.05900000000000002],"type":"VEC3"},{"bufferView":0,"byteOffset":4860,"componentType":5126,"count":24,"max":[0.029444863728670967,-0.015499999999999816,-0.05900000000000001],"min":[-0.024233511963107608,-0.03394445621781817,-0.05900000000000002],"type":"VEC3"},{"bufferView":0,"byteOffset":5148,"componentType":5126,"count":5,"max":[0.029444863728670967,-0.015499999999999816,-0.054],"min":[0.02684678751731761,-0.017000000000000023,-0.05900000000000002],"type":"VEC3"},{"bufferView":0,"byteOffset":5208,"componentType":5126,"count":4,"max":[0.029444863728670963,-0.01700000000000002,-0.051000000000000007],"min":[0.02539371337295877,-0.017780869526882439,-0.054000000000000009],"type":"VEC3"},{"bufferView":0,"byteOffset":5256,"componentType":5126,"count":14,"max":[0.034000000000000019,7.3306893075e-8,-0.051000000000000007],"min":[0.02684678751731761,-0.01700000000000002,-0.05100000000000001],"type":"VEC3"},{"bufferView":0,"byteOffset":5424,"componentType":5126,"count":8,"max":[0.03399999999992102,0.0027018280251774118,-0.051],"min":[0.030882035640844138,7.3306876765e-8,-0.05100000000000001],"type":"VEC3"},{"bufferView":0,"byteOffset":5520,"componentType":5126,"count":4,"max":[0.03399991047423518,0.0027018280251774136,-0.051000000000000007],"min":[0.030882035640844138,0.00007802399627903968,-0.054],"type":"VEC3"},{"bufferView":0,"byteOffset":5568,"componentType":5126,"count":8,"max":[0.03399999999992102,0.0027018280251774118,-0.05399999999999999],"min":[0.030882035640844138,7.330687676e-8,-0.054000000000000009],"type":"VEC3"},{"bufferView":0,"byteOffset":5664,"componentType":5126,"count":14,"max":[0.034000000000000019,7.3306893075e-8,-0.054],"min":[0.029872028114600499,-0.009062734313012685,-0.054000000000000009],"type":"VEC3"},{"bufferView":0,"byteOffset":5832,"componentType":5126,"count":8,"max":[0.03400000000000002,1.7000000000000003e-17,-0.054000000000000009],"min":[0.0327699076405794,-0.009062734313012685,-0.05900000000000001],"type":"VEC3"},{"bufferView":0,"byteOffset":5928,"componentType":5126,"count":33,"max":[0.031,0.030964887514673236,-0.016999999999999996],"min":[-0.030859629599765627,-0.03096488751467326,-0.017000000000000009],"type":"VEC3"},{"bufferView":0,"byteOffset":6324,"componentType":5126,"count":133,"max":[0.031,0.031000000000000008,-0.01799999999999999],"min":[-0.030987129733445526,-0.03096488751467326,-0.05900000000000001],"type":"VEC3"},{"bufferView":0,"byteOffset":7920,"componentType":5126,"count":8,"max":[0.031,0.0,-0.054],"min":[0.029872028114600499,-0.008286249834546267,-0.05900000000000001],"type":"VEC3"},{"bufferView":0,"byteOffset":8016,"componentType":5126,"count":5,"max":[0.0327699076405794,-0.008286249834545836,-0.054000000000000009],"min":[0.029872028114600499,-0.009062734313012685,-0.05900000000000002],"type":"VEC3"},{"bufferView":0,"byteOffset":8076,"componentType":5126,"count":5,"max":[0.0027018280251774036,0.034000000000000047,-0.05399999999999999],"min":[-3e-18,0.030882035640844128,-0.054000000000000009],"type":"VEC3"},{"bufferView":0,"byteOffset":8136,"componentType":5126,"count":5,"max":[0.0027018280251774036,0.034000000000000047,-0.051],"min":[-3e-18,0.030882035640844128,-0.05100000000000001],"type":"VEC3"},{"bufferView":0,"byteOffset":8196,"componentType":5126,"count":5,"max":[-0.02684678751731761,-0.01310116611396169,-0.05399999999999999],"min":[-0.029444863728670963,-0.01700000000000002,-0.054000000000000009],"type":"VEC3"},{"bufferView":0,"byteOffset":8256,"componentType":5126,"count":5,"max":[-0.02684678751731761,-0.01310116611396169,-0.051],"min":[-0.029444863728670963,-0.01700000000000002,-0.051000000000000007],"type":"VEC3"},{"bufferView":0,"byteOffset":8316,"componentType":5126,"count":5,"max":[0.029444863728670963,-0.015499999999999999,-0.05399999999999999],"min":[0.02539371337295877,-0.017780869526882439,-0.054000000000000009],"type":"VEC3"},{"bufferView":0,"byteOffset":8376,"componentType":5126,"count":5,"max":[0.029444863728670963,-0.015499999999999999,-0.051],"min":[0.02539371337295877,-0.017780869526882439,-0.051000000000000007],"type":"VEC3"},{"bufferView":0,"byteOffset":8436,"componentType":5126,"count":33,"max":[0.031,0.030964887514673236,-0.01799999999999999],"min":[-0.030859629599765627,-0.03096488751467326,-0.01800000000000001],"type":"VEC3"},{"bufferView":1,"byteOffset":0,"componentType":5126,"count":70,"type":"VEC3"},{"bufferView":1,"byteOffset":840,"componentType":5126,"count":116,"type":"VEC3"},{"bufferView":1,"byteOffset":2232,"componentType":5126,"count":67,"type":"VEC3"},{"bufferView":1,"byteOffset":3036,"componentType":5126,"count":28,"type":"VEC3"},{"bufferView":1,"byteOffset":3372,"componentType":5126,"count":5,"type":"VEC3"},{"bufferView":1,"byteOffset":3432,"componentType":5126,"count":4,"type":"VEC3"},{"bufferView":1,"byteOffset":3480,"componentType":5126,"count":8,"type":"VEC3"},{"bufferView":1,"byteOffset":3576,"componentType":5126,"count":8,"type":"VEC3"},{"bufferView":1,"byteOffset":3672,"componentType":5126,"count":4,"type":"VEC3"},{"bufferView":1,"byteOffset":3720,"componentType":5126,"count":8,"type":"VEC3"},{"bufferView":1,"byteOffset":3816,"componentType":5126,"count":8,"type":"VEC3"},{"bufferView":1,"byteOffset":3912,"componentType":5126,"count":5,"type":"VEC3"},{"bufferView":1,"byteOffset":3972,"componentType":5126,"count":24,"type":"VEC3"},{"bufferView":1,"byteOffset":4260,"componentType":5126,"count":5,"type":"VEC3"},{"bufferView":1,"byteOffset":4320,"componentType":5126,"count":4,"type":"VEC3"},{"bufferView":1,"byteOffset":4368,"componentType":5126,"count":8,"type":"VEC3"},{"bufferView":1,"byteOffset":4464,"componentType":5126,"count":8,"type":"VEC3"},{"bufferView":1,"byteOffset":4560,"componentType":5126,"count":4,"type":"VEC3"},{"bufferView":1,"byteOffset":4608,"componentType":5126,"count":8,"type":"VEC3"},{"bufferView":1,"byteOffset":4704,"componentType":5126,"count":8,"type":"VEC3"},{"bufferView":1,"byteOffset":4800,"componentType":5126,"count":5,"type":"VEC3"},{"bufferView":1,"byteOffset":4860,"componentType":5126,"count":24,"type":"VEC3"},{"bufferView":1,"byteOffset":5148,"componentType":5126,"count":5,"type":"VEC3"},{"bufferView":1,"byteOffset":5208,"componentType":5126,"count":4,"type":"VEC3"},{"bufferView":1,"byteOffset":5256,"componentType":5126,"count":14,"type":"VEC3"},{"bufferView":1,"byteOffset":5424,"componentType":5126,"count":8,"type":"VEC3"},{"bufferView":1,"byteOffset":5520,"componentType":5126,"count":4,"type":"VEC3"},{"bufferView":1,"byteOffset":5568,"componentType":5126,"count":8,"type":"VEC3"},{"bufferView":1,"byteOffset":5664,"componentType":5126,"count":14,"type":"VEC3"},{"bufferView":1,"byteOffset":5832,"componentType":5126,"count":8,"type":"VEC3"},{"bufferView":1,"byteOffset":5928,"componentType":5126,"count":33,"type":"VEC3"},{"bufferView":1,"byteOffset":6324,"componentType":5126,"count":133,"type":"VEC3"},{"bufferView":1,"byteOffset":7920,"componentType":5126,"count":8,"type":"VEC3"},{"bufferView":1,"byteOffset":8016,"componentType":5126,"count":5,"type":"VEC3"},{"bufferView":1,"byteOffset":8076,"componentType":5126,"count":5,"type":"VEC3"},{"bufferView":1,"byteOffset":8136,"componentType":5126,"count":5,"type":"VEC3"},{"bufferView":1,"byteOffset":8196,"componentType":5126,"count":5,"type":"VEC3"},{"bufferView":1,"byteOffset":8256,"componentType":5126,"count":5,"type":"VEC3"},{"bufferView":1,"byteOffset":8316,"componentType":5126,"count":5,"type":"VEC3"},{"bufferView":1,"byteOffset":8376,"componentType":5126,"count":5,"type":"VEC3"},{"bufferView":1,"byteOffset":8436,"componentType":5126,"count":33,"type":"VEC3"},{"bufferView":2,"byteOffset":0,"componentType":5123,"count":204,"type":"SCALAR"},{"bufferView":2,"byteOffset":408,"componentType":5123,"count":342,"type":"SCALAR"},{"bufferView":2,"byteOffset":1092,"componentType":5123,"count":201,"type":"SCALAR"},{"bufferView":2,"byteOffset":1496,"componentType":5123,"count":78,"type":"SCALAR"},{"bufferView":2,"byteOffset":1652,"componentType":5123,"count":9,"type":"SCALAR"},{"bufferView":2,"byteOffset":1672,"componentType":5123,"count":6,"type":"SCALAR"},{"bufferView":2,"byteOffset":1684,"componentType":5123,"count":18,"type":"SCALAR"},{"bufferView":2,"byteOffset":1720,"componentType":5123,"count":18,"type":"SCALAR"},{"bufferView":2,"byteOffset":1756,"componentType":5123,"count":6,"type":"SCALAR"},{"bufferView":2,"byteOffset":1768,"componentType":5123,"count":18,"type":"SCALAR"},{"bufferView":2,"byteOffset":1804,"componentType":5123,"count":18,"type":"SCALAR"},{"bufferView":2,"byteOffset":1840,"componentType":5123,"count":9,"type":"SCALAR"},{"bufferView":2,"byteOffset":1860,"componentType":5123,"count":66,"type":"SCALAR"},{"bufferView":2,"byteOffset":1992,"componentType":5123,"count":9,"type":"SCALAR"},{"bufferView":2,"byteOffset":2012,"componentType":5123,"count":6,"type":"SCALAR"},{"bufferView":2,"byteOffset":2024,"componentType":5123,"count":18,"type":"SCALAR"},{"bufferView":2,"byteOffset":2060,"componentType":5123,"count":18,"type":"SCALAR"},{"bufferView":2,"byteOffset":2096,"componentType":5123,"count":6,"type":"SCALAR"},{"bufferView":2,"byteOffset":2108,"componentType":5123,"count":18,"type":"SCALAR"},{"bufferView":2,"byteOffset":2144,"componentType":5123,"count":18,"type":"SCALAR"},{"bufferView":2,"byteOffset":2180,"componentType":5123,"count":9,"type":"SCALAR"},{"bufferView":2,"byteOffset":2200,"componentType":5123,"count":66,"type":"SCALAR"},{"bufferView":2,"byteOffset":2332,"componentType":5123,"count":9,"type":"SCALAR"},{"bufferView":2,"byteOffset":2352,"componentType":5123,"count":6,"type":"SCALAR"},{"bufferView":2,"byteOffset":2364,"componentType":5123,"count":36,"type":"SCALAR"},{"bufferView":2,"byteOffset":2436,"componentType":5123,"count":18,"type":"SCALAR"},{"bufferView":2,"byteOffset":2472,"componentType":5123,"count":6,"type":"SCALAR"},{"bufferView":2,"byteOffset":2484,"componentType":5123,"count":18,"type":"SCALAR"},{"bufferView":2,"byteOffset":2520,"componentType":5123,"count":36,"type":"SCALAR"},{"bufferView":2,"byteOffset":2592,"componentType":5123,"count":18,"type":"SCALAR"},{"bufferView":2,"byteOffset":2628,"componentType":5123,"count":93,"type":"SCALAR"},{"bufferView":2,"byteOffset":2816,"componentType":5123,"count":393,"type":"SCALAR"},{"bufferView":2,"byteOffset":3604,"componentType":5123,"count":18,"type":"SCALAR"},{"bufferView":2,"byteOffset":3640,"componentType":5123,"count":9,"type":"SCALAR"},{"bufferView":2,"byteOffset":3660,"componentType":5123,"count":9,"type":"SCALAR"},{"bufferView":2,"byteOffset":3680,"componentType":5123,"count":9,"type":"SCALAR"},{"bufferView":2,"byteOffset":3700,"componentType":5123,"count":9,"type":"SCALAR"},{"bufferView":2,"byteOffset":3720,"componentType":5123,"count":9,"type":"SCALAR"},{"bufferView":2,"byteOffset":3740,"componentType":5123,"count":9,"type":"SCALAR"},{"bufferView":2,"byteOffset":3760,"componentType":5123,"count":9,"type":"SCALAR"},{"bufferView":2,"byteOffset":3780,"componentType":5123,"count":93,"type":"SCALAR"}],"asset":{"generator":"Open CASCADE Technology 7.6 [dev.opencascade.org]","version":"2.0"},"bufferViews":[{"buffer":0,"byteLength":8832,"byteOffset":0,"byteStride":12,"target":34962},{"buffer":0,"byteLength":8832,"byteOffset":8832,"byteStride":12,"target":34962},{"buffer":0,"byteLength":3968,"byteOffset":17664,"target":34963}],"buffers":[{"byteLength":21632,"uri":"cansata-subbody.bin"}],"materials":[{"name":"mat_0","pbrMetallicRoughness":{"baseColorFactor":[0.6038273572921753,0.6038273572921753,0.6038273572921753,1.0]},"doubleSided":true}],"meshes":[{"name":"subbody","primitives":[{"attributes":{"NORMAL":41,"POSITION":0},"indices":82,"material":0,"mode":4},{"attributes":{"NORMAL":42,"POSITION":1},"indices":83,"material":0,"mode":4},{"attributes":{"NORMAL":43,"POSITION":2},"indices":84,"material":0,"mode":4},{"attributes":{"NORMAL":44,"POSITION":3},"indices":85,"material":0,"mode":4},{"attributes":{"NORMAL":45,"POSITION":4},"indices":86,"material":0,"mode":4},{"attributes":{"NORMAL":46,"POSITION":5},"indices":87,"material":0,"mode":4},{"attributes":{"NORMAL":47,"POSITION":6},"indices":88,"material":0,"mode":4},{"attributes":{"NORMAL":48,"POSITION":7},"indices":89,"material":0,"mode":4},{"attributes":{"NORMAL":49,"POSITION":8},"indices":90,"material":0,"mode":4},{"attributes":{"NORMAL":50,"POSITION":9},"indices":91,"material":0,"mode":4},{"attributes":{"NORMAL":51,"POSITION":10},"indices":92,"material":0,"mode":4},{"attributes":{"NORMAL":52,"POSITION":11},"indices":93,"material":0,"mode":4},{"attributes":{"NORMAL":53,"POSITION":12},"indices":94,"material":0,"mode":4},{"attributes":{"NORMAL":54,"POSITION":13},"indices":95,"material":0,"mode":4},{"attributes":{"NORMAL":55,"POSITION":14},"indices":96,"material":0,"mode":4},{"attributes":{"NORMAL":56,"POSITION":15},"indices":97,"material":0,"mode":4},{"attributes":{"NORMAL":57,"POSITION":16},"indices":98,"material":0,"mode":4},{"attributes":{"NORMAL":58,"POSITION":17},"indices":99,"material":0,"mode":4},{"attributes":{"NORMAL":59,"POSITION":18},"indices":100,"material":0,"mode":4},{"attributes":{"NORMAL":60,"POSITION":19},"indices":101,"material":0,"mode":4},{"attributes":{"NORMAL":61,"POSITION":20},"indices":102,"material":0,"mode":4},{"attributes":{"NORMAL":62,"POSITION":21},"indices":103,"material":0,"mode":4},{"attributes":{"NORMAL":63,"POSITION":22},"indices":104,"material":0,"mode":4},{"attributes":{"NORMAL":64,"POSITION":23},"indices":105,"material":0,"mode":4},{"attributes":{"NORMAL":65,"POSITION":24},"indices":106,"material":0,"mode":4},{"attributes":{"NORMAL":66,"POSITION":25},"indices":107,"material":0,"mode":4},{"attributes":{"NORMAL":67,"POSITION":26},"indices":108,"material":0,"mode":4},{"attributes":{"NORMAL":68,"POSITION":27},"indices":109,"material":0,"mode":4},{"attributes":{"NORMAL":69,"POSITION":28},"indices":110,"material":0,"mode":4},{"attributes":{"NORMAL":70,"POSITION":29},"indices":111,"material":0,"mode":4},{"attributes":{"NORMAL":71,"POSITION":30},"indices":112,"material":0,"mode":4},{"attributes":{"NORMAL":72,"POSITION":31},"indices":113,"material":0,"mode":4},{"attributes":{"NORMAL":73,"POSITION":32},"indices":114,"material":0,"mode":4},{"attributes":{"NORMAL":74,"POSITION":33},"indices":115,"material":0,"mode":4},{"attributes":{"NORMAL":75,"POSITION":34},"indices":116,"material":0,"mode":4},{"attributes":{"NORMAL":76,"POSITION":35},"indices":117,"material":0,"mode":4},{"attributes":{"NORMAL":77,"POSITION":36},"indices":118,"material":0,"mode":4},{"attributes":{"NORMAL":78,"POSITION":37},"indices":119,"material":0,"mode":4},{"attributes":{"NORMAL":79,"POSITION":38},"indices":120,"material":0,"mode":4},{"attributes":{"NORMAL":80,"POSITION":39},"indices":121,"material":0,"mode":4},{"attributes":{"NORMAL":81,"POSITION":40},"indices":122,"material":0,"mode":4}]}],"nodes":[{"mesh":0,"name":"subbody"}],"scene":0,"scenes":[{"nodes":[0]}]}