{"accessors":[{"bufferView":0,"byteOffset":0,"componentType":5126,"count":30,"max":[0.030957145062122767,1.4e-17,0.030993435919748343],"min":[-0.030999999999999247,-2.4174880017403707e-17,-0.030917058722983868],"type":"VEC3"},{"bufferView":0,"byteOffset":360,"componentType":5126,"count":91,"max":[0.006750025160755178,0.003000000000000008,0.033991012125645426],"min":[-0.03399999999999917,0.0,6.956452734e-9],"type":"VEC3"},{"bufferView":0,"byteOffset":1452,"componentType":5126,"count":18,"max":[0.016505606321990142,0.008000000000000045,0.03399966481220174],"min":[-0.0010310332817559781,7e-18,0.026736275034203946],"type":"VEC3"},{"bufferView":0,"byteOffset":1668,"componentType":5126,"count":117,"max":[0.03400000000000003,0.003000000000000016,0.029444859913841267],"min":[0.015500006024464425,-9e-18,-0.02097378931487817],"type":"VEC3"},{"bufferView":0,"byteOffset":3072,"componentType":5126,"count":18,"max":[0.029892033777921465,0.008000000000000021,-0.016034911089819925],"min":[0.015262354236439348,-9e-18,-0.028588541351647602],"type":"VEC3"},{"bufferView":0,"byteOffset":3288,"componentType":5126,"count":91,"max":[0.01699999339252207,0.002999999999999996,-0.009282402784081902],"min":[-0.029577643559859028,-2.4174880017403707e-17,-0.03394511604375405],"type":"VEC3"},{"bufferView":0,"byteOffset":4380,"componentType":5126,"count":18,"max":[-0.028676736807868523,0.008000000000000026,0.00030110205357689],"min":[-0.03301119981334733,-1.1e-17,-0.017844786591954428],"type":"VEC3"},{"bufferView":0,"byteOffset":4596,"componentType":5126,"count":7,"max":[-0.03104623252793721,0.008000000000000026,0.00030110205357689],"min":[-0.03301119981334733,3.7912157837100004e-7,7.407769381000001e-9],"type":"VEC3"},{"bufferView":0,"byteOffset":4680,"componentType":5126,"count":7,"max":[-0.03301119980828311,0.008000000000000028,7.629657837e-9],"min":[-0.03399999999999917,0.000774000160546128,7.407769381000001e-9],"type":"VEC3"},{"bufferView":0,"byteOffset":4764,"componentType":5126,"count":27,"max":[0.002945577293390196,0.06200000000000004,0.03400000000000001],"min":[-0.03399999999999917,0.003,7.6296578e-9],"type":"VEC3"},{"bufferView":0,"byteOffset":5088,"componentType":5126,"count":14,"max":[0.016505606321990142,0.008000000000000045,0.03400000000000001],"min":[-0.01700000660747708,0.008000000000000028,0.026846784039090573],"type":"VEC3"},{"bufferView":0,"byteOffset":5256,"componentType":5126,"count":7,"max":[0.016505606321990142,0.008000000000000042,0.028588533943878208],"min":[0.01578387829149787,3.79121578385e-7,0.026736275034203946],"type":"VEC3"},{"bufferView":0,"byteOffset":5340,"componentType":5126,"count":7,"max":[0.01700000660747711,0.008000000000000044,0.029444859913841277],"min":[0.016505606320130085,0.000774000160546143,0.028588533939104464],"type":"VEC3"},{"bufferView":0,"byteOffset":5424,"componentType":5126,"count":16,"max":[0.03400000000000003,0.06200000000000004,0.029444859913841277],"min":[0.017000006607477077,0.0030000000000000005,1.34e-16],"type":"VEC3"},{"bufferView":0,"byteOffset":5616,"componentType":5126,"count":14,"max":[0.03400000000000003,0.008000000000000028,7.629657853e-9],"min":[0.02786136688583217,0.002999999999999994,-0.019487027358041482],"type":"VEC3"},{"bufferView":0,"byteOffset":5784,"componentType":5126,"count":7,"max":[0.016505593491357193,0.008000000000000018,-0.027037377087780843],"min":[0.015262354236439348,3.7912157836700003e-7,-0.028588541351647602],"type":"VEC3"},{"bufferView":0,"byteOffset":5868,"componentType":5126,"count":14,"max":[0.03399999999999914,0.008000000000000028,7.629657853e-9],"min":[0.015499993975534839,0.007999999999999993,-0.028588541351647602],"type":"VEC3"},{"bufferView":0,"byteOffset":6036,"componentType":5126,"count":7,"max":[0.016999993392522082,0.008000000000000018,-0.028588541347649862],"min":[0.01650559348815303,0.000774000160546124,-0.029444867543499117],"type":"VEC3"},{"bufferView":0,"byteOffset":6120,"componentType":5126,"count":27,"max":[0.016999993392522082,0.06200000000000001,-0.014385137828268462],"min":[-0.030806944179222355,0.002999999999999975,-0.03400000000000003],"type":"VEC3"},{"bufferView":0,"byteOffset":6444,"componentType":5126,"count":14,"max":[-0.015499993975534823,0.008000000000000026,7.407769381000001e-9],"min":[-0.03301119981334733,0.007999999999999995,-0.02944486754349909],"type":"VEC3"},{"bufferView":0,"byteOffset":6612,"componentType":5126,"count":5,"max":[-0.030999999999999226,0.06200000000000003,7.629657817e-9],"min":[-0.033999999999999156,0.008000000000000002,6.956452719e-9],"type":"VEC3"},{"bufferView":0,"byteOffset":6672,"componentType":5126,"count":4,"max":[-0.015500006024464398,0.06200000000000004,0.029444859913841267],"min":[-0.01700000660747708,0.008000000000000028,0.026846784039090542],"type":"VEC3"},{"bufferView":0,"byteOffset":6720,"componentType":5126,"count":69,"max":[0.03399999999999958,0.06200000000000004,0.030830178610986983],"min":[-0.03399999999999915,0.06199999999999997,-0.03400000000000003],"type":"VEC3"},{"bufferView":0,"byteOffset":7548,"componentType":5126,"count":5,"max":[0.01700000660747708,0.06200000000000004,0.029444859913841277],"min":[0.015500006024464412,0.008000000000000028,0.02684678403909054],"type":"VEC3"},{"bufferView":0,"byteOffset":7608,"componentType":5126,"count":12,"max":[0.015500006024464412,0.06200000000000004,0.030830178610987007],"min":[-0.015500006024464398,0.008000000000000028,0.02684678403909054],"type":"VEC3"},{"bufferView":0,"byteOffset":7752,"componentType":5126,"count":4,"max":[0.03399999999999958,0.062000000000000034,7.629657853e-9],"min":[0.03099999999999922,0.008000000000000002,3.814828902e-9],"type":"VEC3"},{"bufferView":0,"byteOffset":7800,"componentType":5126,"count":5,"max":[0.016999993392522082,0.06200000000000001,-0.026846790995543303],"min":[0.015499993975534818,0.008000000000000002,-0.029444867543499096],"type":"VEC3"},{"bufferView":0,"byteOffset":7860,"componentType":5126,"count":12,"max":[0.03099999999999924,0.06200000000000003,6.956452745070065e-9],"min":[0.015499993975534818,0.007999999999999997,-0.02684679099554331],"type":"VEC3"},{"bufferView":0,"byteOffset":8004,"componentType":5126,"count":4,"max":[-0.015499993975534811,0.06200000000000001,-0.026846790995543282],"min":[-0.01699999339252205,0.008000000000000002,-0.029444867543499117],"type":"VEC3"},{"bufferView":0,"byteOffset":8052,"componentType":5126,"count":12,"max":[-0.015499993975534811,0.06200000000000003,6.956452741517346e-9],"min":[-0.03099999999999923,0.007999999999999997,-0.026846790995543313],"type":"VEC3"},{"bufferView":0,"byteOffset":8196,"componentType":5126,"count":62,"max":[0.03025,0.06200000000000001,0.0300842873348903],"min":[-0.03025,0.0020000000000000144,-0.030084287334890266],"type":"VEC3"},{"bufferView":0,"byteOffset":8940,"componentType":5126,"count":30,"max":[0.03025,0.0020000000000000144,0.0300842873348903],"min":[-0.03025,0.0020000000000000144,-0.03008428733489024],"type":"VEC3"},{"bufferView":1,"byteOffset":0,"componentType":5126,"count":30,"type":"VEC3"},{"bufferView":1,"byteOffset":360,"componentType":5126,"count":91,"type":"VEC3"},{"bufferView":1,"byteOffset":1452,"componentType":5126,"count":18,"type":"VEC3"},{"bufferView":1,"byteOffset":1668,"componentType":5126,"count":117,"type":"VEC3"},{"bufferView":1,"byteOffset":3072,"componentType":5126,"count":18,"type":"VEC3"},{"bufferView":1,"byteOffset":3288,"componentType":5126,"count":91,"type":"VEC3"},{"bufferView":1,"byteOffset":4380,"componentType":5126,"count":18,"type":"VEC3"},{"bufferView":1,"byteOffset":4596,"componentType":5126,"count":7,"type":"VEC3"},{"bufferView":1,"byteOffset":4680,"componentType":5126,"count":7,"type":"VEC3"},{"bufferView":1,"byteOffset":4764,"componentType":5126,"count":27,"type":"VEC3"},{"bufferView":1,"byteOffset":5088,"componentType":5126,"count":14,"type":"VEC3"},{"bufferView":1,"byteOffset":5256,"componentType":5126,"count":7,"type":"VEC3"},{"bufferView":1,"byteOffset":5340,"componentType":5126,"count":7,"type":"VEC3"},{"bufferView":1,"byteOffset":5424,"componentType":5126,"count":16,"type":"VEC3"},{"bufferView":1,"byteOffset":5616,"componentType":5126,"count":14,"type":"VEC3"},{"bufferView":1,"byteOffset":5784,"componentType":5126,"count":7,"type":"VEC3"},{"bufferView":1,"byteOffset":5868,"componentType":5126,"count":14,"type":"VEC3"},{"bufferView":1,"byteOffset":6036,"componentType":5126,"count":7,"type":"VEC3"},{"bufferView":1,"byteOffset":6120,"componentType":5126,"count":27,"type":"VEC3"},{"bufferView":1,"byteOffset":6444,"componentType":5126,"count":14,"type":"VEC3"},{"bufferView":1,"byteOffset":6612,"componentType":5126,"count":5,"type":"VEC3"},{"bufferView":1,"byteOffset":6672,"componentType":5126,"count":4,"type":"VEC3"},{"bufferView":1,"byteOffset":6720,"componentType":5126,"count":69,"type":"VEC3"},{"bufferView":1,"byteOffset":7548,"componentType":5126,"count":5,"type":"VEC3"},{"bufferView":1,"byteOffset":7608,"componentType":5126,"count":12,"type":"VEC3"},{"bufferView":1,"byteOffset":7752,"componentType":5126,"count":4,"type":"VEC3"},{"bufferView":1,"byteOffset":7800,"componentType":5126,"count":5,"type":"VEC3"},{"bufferView":1,"byteOffset":7860,"componentType":5126,"count":12,"type":"VEC3"},{"bufferView":1,"byteOffset":8004,"componentType":5126,"count":4,"type":"VEC3"},{"bufferView":1,"byteOffset":8052,"componentType":5126,"count":12,"type":"VEC3"},{"bufferView":1,"byteOffset":8196,"componentType":5126,"count":62,"type":"VEC3"},{"bufferView":1,"byteOffset":8940,"componentType":5126,"count":30,"type":"VEC3"},{"bufferView":2,"byteOffset":0,"componentType":5123,"count":84,"type":"SCALAR"},{"bufferView":2,"byteOffset":168,"componentType":5123,"count":429,"type":"SCALAR"},{"bufferView":2,"byteOffset":1028,"componentType":5123,"count":48,"type":"SCALAR"},{"bufferView":2,"byteOffset":1124,"componentType":5123,"count":582,"type":"SCALAR"},{"bufferView":2,"byteOffset":2288,"componentType":5123,"count":48,"type":"SCALAR"},{"bufferView":2,"byteOffset":2384,"componentType":5123,"count":429,"type":"SCALAR"},{"bufferView":2,"byteOffset":3244,"componentType":5123,"count":48,"type":"SCALAR"},{"bufferView":2,"byteOffset":3340,"componentType":5123,"count":15,"type":"SCALAR"},{"bufferView":2,"byteOffset":3372,"componentType":5123,"count":15,"type":"SCALAR"},{"bufferView":2,"byteOffset":3404,"componentType":5123,"count":75,"type":"SCALAR"},{"bufferView":2,"byteOffset":3556,"componentType":5123,"count":36,"type":"SCALAR"},{"bufferView":2,"byteOffset":3628,"componentType":5123,"count":15,"type":"SCALAR"},{"bufferView":2,"byteOffset":3660,"componentType":5123,"count":15,"type":"SCALAR"},{"bufferView":2,"byteOffset":3692,"componentType":5123,"count":42,"type":"SCALAR"},{"bufferView":2,"byteOffset":3776,"componentType":5123,"count":36,"type":"SCALAR"},{"bufferView":2,"byteOffset":3848,"componentType":5123,"count":15,"type":"SCALAR"},{"bufferView":2,"byteOffset":3880,"componentType":5123,"count":36,"type":"SCALAR"},{"bufferView":2,"byteOffset":3952,"componentType":5123,"count":15,"type":"SCALAR"},{"bufferView":2,"byteOffset":3984,"componentType":5123,"count":75,"type":"SCALAR"},{"bufferView":2,"byteOffset":4136,"componentType":5123,"count":36,"type":"SCALAR"},{"bufferView":2,"byteOffset":4208,"componentType":5123,"count":9,"type":"SCALAR"},{"bufferView":2,"byteOffset":4228,"componentType":5123,"count":6,"type":"SCALAR"},{"bufferView":2,"byteOffset":4240,"componentType":5123,"count":207,"type":"SCALAR"},{"bufferView":2,"byteOffset":4656,"componentType":5123,"count":9,"type":"SCALAR"},{"bufferView":2,"byteOffset":4676,"componentType":5123,"count":30,"type":"SCALAR"},{"bufferView":2,"byteOffset":4736,"componentType":5123,"count":6,"type":"SCALAR"},{"bufferView":2,"byteOffset":4748,"componentType":5123,"count":9,"type":"SCALAR"},{"bufferView":2,"byteOffset":4768,"componentType":5123,"count":30,"type":"SCALAR"},{"bufferView":2,"byteOffset":4828,"componentType":5123,"count":6,"type":"SCALAR"},{"bufferView":2,"byteOffset":4840,"componentType":5123,"count":30,"type":"SCALAR"},{"bufferView":2,"byteOffset":4900,"componentType":5123,"count":180,"type":"SCALAR"},{"bufferView":2,"byteOffset":5260,"componentType":5123,"count":84,"type":"SCALAR"}],"asset":{"generator":"Open CASCADE Technology 7.8 [dev.opencascade.org]","version":"2.0"},"bufferViews":[{"buffer":0,"byteLength":9300,"byteOffset":0,"byteStride":12,"target":34962},{"buffer":0,"byteLength":9300,"byteOffset":9300,"byteStride":12,"target":34962},{"buffer":0,"byteLength":5428,"byteOffset":18600,"target":34963}],"buffers":[{"byteLength":24028,"uri":"Body.bin"}],"materials":[{"name":"mat_0","pbrMetallicRoughness":{"baseColorFactor":[0.16826939582824707,0.19120168685913086,0.2158605307340622,1.0]},"doubleSided":true}],"meshes":[{"name":"PolarPattern003","primitives":[{"attributes":{"NORMAL":32,"POSITION":0},"indices":64,"material":0,"mode":4},{"attributes":{"NORMAL":33,"POSITION":1},"indices":65,"material":0,"mode":4},{"attributes":{"NORMAL":34,"POSITION":2},"indices":66,"material":0,"mode":4},{"attributes":{"NORMAL":35,"POSITION":3},"indices":67,"material":0,"mode":4},{"attributes":{"NORMAL":36,"POSITION":4},"indices":68,"material":0,"mode":4},{"attributes":{"NORMAL":37,"POSITION":5},"indices":69,"material":0,"mode":4},{"attributes":{"NORMAL":38,"POSITION":6},"indices":70,"material":0,"mode":4},{"attributes":{"NORMAL":39,"POSITION":7},"indices":71,"material":0,"mode":4},{"attributes":{"NORMAL":40,"POSITION":8},"indices":72,"material":0,"mode":4},{"attributes":{"NORMAL":41,"POSITION":9},"indices":73,"material":0,"mode":4},{"attributes":{"NORMAL":42,"POSITION":10},"indices":74,"material":0,"mode":4},{"attributes":{"NORMAL":43,"POSITION":11},"indices":75,"material":0,"mode":4},{"attributes":{"NORMAL":44,"POSITION":12},"indices":76,"material":0,"mode":4},{"attributes":{"NORMAL":45,"POSITION":13},"indices":77,"material":0,"mode":4},{"attributes":{"NORMAL":46,"POSITION":14},"indices":78,"material":0,"mode":4},{"attributes":{"NORMAL":47,"POSITION":15},"indices":79,"material":0,"mode":4},{"attributes":{"NORMAL":48,"POSITION":16},"indices":80,"material":0,"mode":4},{"attributes":{"NORMAL":49,"POSITION":17},"indices":81,"material":0,"mode":4},{"attributes":{"NORMAL":50,"POSITION":18},"indices":82,"material":0,"mode":4},{"attributes":{"NORMAL":51,"POSITION":19},"indices":83,"material":0,"mode":4},{"attributes":{"NORMAL":52,"POSITION":20},"indices":84,"material":0,"mode":4},{"attributes":{"NORMAL":53,"POSITION":21},"indices":85,"material":0,"mode":4},{"attributes":{"NORMAL":54,"POSITION":22},"indices":86,"material":0,"mode":4},{"attributes":{"NORMAL":55,"POSITION":23},"indices":87,"material":0,"mode":4},{"attributes":{"NORMAL":56,"POSITION":24},"indices":88,"material":0,"mode":4},{"attributes":{"NORMAL":57,"POSITION":25},"indices":89,"material":0,"mode":4},{"attributes":{"NORMAL":58,"POSITION":26},"indices":90,"material":0,"mode":4},{"attributes":{"NORMAL":59,"POSITION":27},"indices":91,"material":0,"mode":4},{"attributes":{"NORMAL":60,"POSITION":28},"indices":92,"material":0,"mode":4},{"attributes":{"NORMAL":61,"POSITION":29},"indices":93,"material":0,"mode":4},{"attributes":{"NORMAL":62,"POSITION":30},"indices":94,"material":0,"mode":4},{"attributes":{"NORMAL":63,"POSITION":31},"indices":95,"material":0,"mode":4}]}],"nodes":[{"mesh":0,"name":"PolarPattern003"}],"scene":0,"scenes":[{"nodes":[0]}]}